<svg width="469" height="380" viewBox="0 0 469 380" fill="none" xmlns="http://www.w3.org/2000/svg">
<g clip-path="url(#clip0)">
<path d="M59.1272 317.235C69.2389 319.597 80.6597 327.199 84.0851 332.453C87.8928 326.587 94.5421 314.961 98.8114 307.699C103.916 299.015 116.433 279.827 108.229 272.947C101.617 267.403 90.3178 285.841 88.0335 283.138C85.7492 280.435 102.398 249.123 90.192 244.857C80.9943 241.643 76.6056 250.663 72.9574 251.771C69.3093 252.879 69.6095 225.233 53.5309 230.117C41.2836 233.837 52.7306 253.746 49.5051 258.894C47.6652 261.831 32.8837 253.313 29.3101 265.028C25.8316 276.432 58.049 287.91 57.9364 292.28C57.8239 296.65 34.5531 290.151 32.9206 299.878C31.2882 309.606 46.6339 314.316 59.1272 317.235Z" fill="#1EFFAE"/>
<path d="M74.6629 312.349C80.3702 318.253 85.5534 326.203 85.5006 331.181C90.6625 328.888 100.294 323.958 106.387 320.929L106.488 320.879C113.788 317.249 126.13 311.113 123.724 303.041C121.776 296.506 110.456 302.681 110.134 299.897C109.812 297.113 136.195 282.092 129.937 274.019C125.22 267.936 116.977 273.295 114.043 272.475C111.11 271.656 124.694 253.498 111.766 249.886C101.918 247.135 102.484 266.822 98.0315 268.884C95.4916 270.061 86.5613 256.366 78.9469 262.671C71.5352 268.808 85.4333 287.936 83.4091 290.81C81.3848 293.683 73.4652 285.617 68.0355 291.423C62.6057 297.229 67.6114 305.053 74.6629 312.349Z" fill="#1EFFAE"/>
<path d="M74.6629 312.349C80.3702 318.253 85.5534 326.203 85.5006 331.181C90.6625 328.888 100.294 323.958 106.387 320.929L106.488 320.879C113.788 317.249 126.13 311.113 123.724 303.041C121.776 296.506 110.456 302.681 110.134 299.897C109.812 297.113 136.195 282.092 129.937 274.019C125.22 267.936 116.977 273.295 114.043 272.475C111.11 271.656 124.694 253.498 111.766 249.886C101.918 247.135 102.484 266.822 98.0315 268.884C95.4916 270.061 86.5613 256.366 78.9469 262.671C71.5352 268.808 85.4333 287.936 83.4091 290.81C81.3848 293.683 73.4652 285.617 68.0355 291.423C62.6057 297.229 67.6114 305.053 74.6629 312.349Z" fill="#1EFFAE"/>
<path d="M85.1733 334.36C93.3823 327.811 96.519 322.382 84.9754 309.384C76.9805 300.381 66.1049 293.995 69.1023 289.029C73.4105 281.89 79.7457 285.656 85.1134 290.879C90.4811 296.102 95.7031 312.14 102.155 309.061C107.509 306.506 107.266 294.827 99.3729 289.905C90.4741 284.355 85.206 274.486 89.4025 271.953C93.599 269.419 98.4148 270.194 105.179 280.728C110.59 289.155 117.069 287.154 119.177 283.889C122.435 278.843 108.059 277.196 106.471 266.768C105.769 262.166 108.065 256.772 111.167 252.792" stroke="#220D4E" stroke-width="1.73882" stroke-linecap="round"/>
<path d="M59.5291 246.765C59.301 246.361 58.789 246.219 58.3855 246.447C57.9819 246.675 57.8396 247.187 58.0676 247.591L59.5291 246.765ZM78.0037 320.922C78.0711 321.381 78.4975 321.698 78.9561 321.631C79.4147 321.563 79.7318 321.137 79.6644 320.678L78.0037 320.922ZM71.4859 285.661C71.5924 286.113 72.0444 286.392 72.4956 286.285C72.9467 286.179 73.2261 285.727 73.1196 285.276L71.4859 285.661ZM76.3185 300.069C76.233 299.614 75.7944 299.314 75.3388 299.399C74.8832 299.485 74.5833 299.923 74.6688 300.379L76.3185 300.069ZM58.0676 247.591C63.912 257.935 68.2861 272.106 71.4859 285.661L73.1196 285.276C69.9103 271.68 65.4932 257.321 59.5291 246.765L58.0676 247.591ZM74.6688 300.379C76.1908 308.487 77.3129 316.223 78.0037 320.922L79.6644 320.678C78.9742 315.983 77.8476 308.215 76.3185 300.069L74.6688 300.379Z" fill="#220D4E"/>
<path d="M62.4688 323.493C62.2703 322.424 63.091 321.437 64.1784 321.437H107.134C108.219 321.437 109.039 322.42 108.845 323.488L102.17 360.071C102.019 360.897 101.299 361.498 100.459 361.498H70.9682C70.1302 361.498 69.4114 360.9 69.2585 360.076L62.4688 323.493Z" fill="white"/>
<path d="M62.0872 321.437H107.134C108.219 321.437 109.039 322.42 108.845 323.488L101.91 361.498" stroke="#220D4E" stroke-width="1.73882" stroke-linecap="round"/>
<path d="M62.7937 327.489H103.183" stroke="#220D4E" stroke-width="1.73882" stroke-linecap="round"/>
<path d="M100.928 341.839L98.4561 356.362" stroke="#220D4E" stroke-width="1.73882" stroke-linecap="round"/>
</g>
<path d="M438.048 42.9458C435.802 42.9095 434.884 46.1375 433.431 49.5092C432.619 51.3732 430.79 58.4237 430.39 58.1864C431.071 55.1928 432.843 38.1481 431.009 32.7006C430.451 31.0326 427.147 30.1637 425.94 30.6139C423.527 31.5142 421.445 53.0275 421.036 57.2479C420.826 59.5403 421.065 42.8874 420.748 38.705C420.492 35.2696 420.014 31.399 418.729 29.1014C417.827 27.4788 415.055 27.875 413.824 28.1542C410.902 28.8317 410.737 36.6198 410.73 40.5402C410.737 43.2393 410.022 51.6229 410.164 56.801C409.167 56.7154 409.035 56.907 408.116 56.9271C408.403 52.7375 407.525 39.5857 407.065 35.2917C406.739 32.2574 405.241 29.5816 401.179 30.8454C398.366 31.7262 396.452 46.5688 396.214 51.5359C396.128 53.2601 396.209 59.3319 396.465 61.6641C396.146 61.9823 395.841 62.2984 395.541 62.643C394.778 61.4231 391.774 55.0273 385.938 52.0262C384.874 51.4848 380.886 53.4792 381.16 55.272C381.706 58.7272 385.276 65.527 386.942 68.3693C387.805 69.8373 389.521 72.702 391.403 75.835C391.437 76.295 391.485 76.7386 391.551 77.1945C393.07 87.7354 400.189 92.2505 411.449 92.8494C424.743 93.5562 431.078 85.7926 433.238 75.3015C433.798 72.5707 436.072 64.9678 436.445 63.9167C437.688 60.4132 440.627 51.0238 441.053 45.1607C441.206 43.3549 439.004 42.9643 438.048 42.9458Z" fill="#FBEADD" stroke="#220D4E" stroke-width="1.7" stroke-miterlimit="10" stroke-linecap="round" stroke-linejoin="round"/>
<path d="M395.791 62.9139C395.791 62.9139 403.673 60.2736 412.972 67.4587L395.791 62.9139Z" fill="#FBEADD"/>
<path d="M395.791 62.9139C395.791 62.9139 403.673 60.2736 412.972 67.4587" stroke="#220D4E" stroke-width="1.7" stroke-miterlimit="10" stroke-linecap="round" stroke-linejoin="round"/>
<path d="M399.959 58.7331C400.406 58.5287 416.407 53.7984 428.233 59.7783L399.959 58.7331Z" fill="#FBEADD"/>
<path d="M399.959 58.7331C400.406 58.5287 416.407 53.7984 428.233 59.7783" stroke="#220D4E" stroke-width="1.7" stroke-miterlimit="10" stroke-linecap="round" stroke-linejoin="round"/>
<path d="M398.583 78.2612L385.775 113.329L415.183 123.902C415.183 123.902 427.249 92.4245 427.845 83.0824C428.574 71.7066 398.583 78.2612 398.583 78.2612Z" fill="#FBEADD"/>
<path d="M415.241 124.559L428.429 86.445" stroke="#220D4E" stroke-width="1.7" stroke-linecap="round" stroke-linejoin="round"/>
<path d="M413.335 87.8564C413.335 87.8564 408.085 90.6219 400.473 86.4965" stroke="#220D4E" stroke-width="1.7" stroke-miterlimit="10" stroke-linecap="round" stroke-linejoin="round"/>
<path d="M227.891 296.927L169.567 281.942L202.945 201.932L249.794 248.127L227.891 296.927Z" fill="#00C2FF"/>
<path d="M203.163 202.224C203.163 202.224 234.91 181.527 273.798 182.055C312.685 182.584 337.435 192.915 337.435 192.915C337.435 192.915 340.675 223.346 337.435 262.007C335.902 280.291 338.913 338.522 335.085 349.552C331.258 360.581 219.543 346.46 214.618 349.552C209.694 352.644 209.053 303.192 209.053 282.999C209.053 242.974 203.163 202.224 203.163 202.224Z" fill="#00C2FF"/>
<path d="M210.004 239.955L210.003 298.709" stroke="#220D4E" stroke-width="1.7" stroke-linecap="round" stroke-linejoin="round"/>
<path d="M334.695 190.154L345.448 202.648" stroke="#220D4E" stroke-width="1.7" stroke-linecap="round" stroke-linejoin="round"/>
<path d="M329.816 191.899L333.897 206.425" stroke="#220D4E" stroke-width="1.7" stroke-linecap="round" stroke-linejoin="round"/>
<path d="M238.37 170.354L241.657 193.466C241.657 193.466 252.856 201.453 268.372 199.58C283.889 197.706 291.348 188.634 291.348 185.733L286.361 123.47L238.37 170.354Z" fill="#FBEADD"/>
<path d="M250.072 182.905C244.852 184.607 240.831 181.587 239.547 180.005L237.193 166.824C239.118 166.824 240.145 166.613 242.199 166.824C244.766 167.088 250.028 169.329 254.392 166.824C257.883 164.821 268.041 158.608 273.689 152.852C272.748 156.367 270.095 162.474 267.015 166.824C262.806 172.768 257.26 180.562 250.072 182.905Z" fill="#220D4E"/>
<path d="M289.789 99.4816C286.674 100.734 284.333 103.191 282.734 105.433C281.597 99.6135 280.443 94.1405 279.652 90.0028C277.344 77.8041 260.63 76.2051 244.789 78.5459C230.283 80.689 212.234 90.6622 211.574 95.9374C210.915 101.212 211.492 109.702 212.481 119.593C214.525 140.1 219.322 160.228 232.014 169.459C242.353 176.979 261.089 170.137 267.023 166.181C272.957 162.224 285.009 147.617 286.327 136.243C286.575 134.182 286.393 129.649 286.163 126.681C289.41 125.28 297.536 122.049 300.668 114.318C305.284 102.943 296.382 96.844 289.789 99.4816Z" fill="#FBEADD" stroke="#220D4E" stroke-width="1.67856" stroke-miterlimit="10" stroke-linecap="round" stroke-linejoin="round"/>
<path d="M228.206 130.046C229.349 130.046 230.275 127.919 230.275 125.295C230.275 122.671 229.349 120.544 228.206 120.544C227.063 120.544 226.137 122.671 226.137 125.295C226.137 127.919 227.063 130.046 228.206 130.046Z" fill="#220D4E"/>
<path d="M263.795 123.436C264.938 123.436 265.864 121.309 265.864 118.685C265.864 116.061 264.938 113.934 263.795 113.934C262.652 113.934 261.726 116.061 261.726 118.685C261.726 121.309 262.652 123.436 263.795 123.436Z" fill="#220D4E"/>
<path d="M251.32 141.874C251.32 141.874 243.836 143.662 240.725 144.625C240.791 136.007 240.725 127.387 240.725 118.769" stroke="#220D4E" stroke-width="1.67856" stroke-miterlimit="10" stroke-linecap="round" stroke-linejoin="round"/>
<path d="M244.257 150.161C244.257 150.161 253.679 155.297 260.086 151.379C267.853 146.631 266.542 139.924 266.542 139.924" stroke="#220D4E" stroke-width="1.67856" stroke-miterlimit="10" stroke-linecap="round" stroke-linejoin="round"/>
<path d="M217.861 106.085C217.861 106.085 221.171 103.885 227.792 104.562" stroke="#220D4E" stroke-width="1.67856" stroke-miterlimit="10" stroke-linecap="round" stroke-linejoin="round"/>
<path d="M255.933 97.4094C255.933 97.4094 259.243 94.0634 265.037 95.8885" stroke="#220D4E" stroke-width="1.67856" stroke-miterlimit="10" stroke-linecap="round" stroke-linejoin="round"/>
<path d="M187.747 77.0571C187.747 77.0571 190.886 102.654 215.607 98.6059C240.329 94.5575 268.582 85.1543 268.582 85.1543C268.582 85.1543 271.985 106.525 279.353 107.016C285.325 107.016 286.252 104.371 287.025 97.1692C287.799 89.9675 291.066 75.4899 274.861 62.6915C258.656 49.8931 236.666 56.2919 228.557 62.6914C220.447 69.0908 206.582 64.5196 206.582 64.5196C206.582 64.5196 207.628 71.9636 202.135 75.7511C196.641 79.5385 187.747 77.0571 187.747 77.0571Z" fill="#220D4E"/>
<path d="M222.206 141.613C231.462 141.613 238.966 134.03 238.966 124.675C238.966 115.32 231.462 107.737 222.206 107.737C212.949 107.737 205.446 115.32 205.446 124.675C205.446 134.03 212.949 141.613 222.206 141.613Z" stroke="#220D4E" stroke-width="1.67856" stroke-miterlimit="10" stroke-linecap="round" stroke-linejoin="round"/>
<path d="M265.037 134.177C274.408 134.177 282.004 126.686 282.004 117.445C282.004 108.205 274.408 100.714 265.037 100.714C255.667 100.714 248.07 108.205 248.07 117.445C248.07 126.686 255.667 134.177 265.037 134.177Z" stroke="#220D4E" stroke-width="1.67856" stroke-miterlimit="10" stroke-linecap="round" stroke-linejoin="round"/>
<path d="M237.311 117.652C237.311 117.652 241.673 114.279 248.898 116.153" stroke="#220D4E" stroke-width="1.67856" stroke-miterlimit="10" stroke-linecap="round" stroke-linejoin="round"/>
<path d="M287.816 142.274L291.348 182.235" stroke="#220D4E" stroke-width="1.67856" stroke-linecap="round" stroke-linejoin="round"/>
<path d="M304.866 195.786L361.14 170.217L390.988 99.3257L424.125 107.399L403.636 182.705C403.636 182.705 337.163 248.263 319.589 260.58C302.015 272.897 304.866 195.786 304.866 195.786Z" fill="#00C2FF"/>
<path d="M388.684 98.6362L413.827 105.411" stroke="#220D4E" stroke-width="1.7" stroke-linecap="round" stroke-linejoin="round"/>
<rect x="134.566" y="350.083" width="194.639" height="5.91667" rx="2.95834" fill="#4B0ECD"/>
<path d="M108.832 263.922H248.44L277.987 356H138.379L108.832 263.922Z" fill="#4B0ECD"/>
<path d="M105.391 263.922H244.999L274.546 356H134.937L105.391 263.922Z" fill="#9B6BFF"/>
<ellipse cx="189.608" cy="312.093" rx="10.9012" ry="9.57822" fill="#1EFFAE"/>
<path d="M350.483 336.624C352.835 335.17 358.367 331.43 361.48 337.974C364.461 344.243 350.38 357.293 348.305 358.436" stroke="#FFD330" stroke-width="1.7"/>
<path d="M304.703 320.911H354.912L347.126 372.22H312.624L304.703 320.911Z" fill="#FFD330"/>
<path d="M304.703 320.911H312.276L323.451 372.38H312.276L304.703 320.911Z" fill="#FFAC25"/>
<defs>
<clipPath id="clip0">
<rect width="163.168" height="163.37" fill="white" transform="translate(0.390625 215.822)"/>
</clipPath>
</defs>
</svg>
